<svg width="46" height="46" viewBox="0 0 46 46" fill="none" xmlns="http://www.w3.org/2000/svg">
<path d="M23.0031 43.7059C27.0977 43.7059 31.1004 42.4917 34.505 40.2169C37.9095 37.942 40.5631 34.7087 42.13 30.9258C43.697 27.1428 44.107 22.9802 43.3081 18.9642C42.5093 14.9483 40.5376 11.2594 37.6422 8.36402C34.7469 5.46868 31.058 3.49692 27.042 2.6981C23.0261 1.89928 18.8634 2.30926 15.0805 3.87621C11.2975 5.44316 8.0642 8.09669 5.78935 11.5013C3.51449 14.9058 2.30029 18.9085 2.30029 23.0031C2.30029 26.426 3.12841 29.6533 4.60061 32.4965L2.30029 43.7059L13.5097 41.4056C16.3529 42.8778 19.5825 43.7059 23.0031 43.7059Z" stroke="#4A6DE5" stroke-width="4.60063" stroke-linecap="round" stroke-linejoin="round"/>
</svg>
