<svg width="48" height="48" viewBox="0 0 48 48" fill="none" xmlns="http://www.w3.org/2000/svg">
<path d="M24 0C17.6587 0.0769427 11.5988 2.63021 7.11451 7.11451C2.63021 11.5988 0.0769427 17.6587 0 24C0.0769427 30.3413 2.63021 36.4012 7.11451 40.8855C11.5988 45.3698 17.6587 47.9231 24 48C30.3413 47.9231 36.4012 45.3698 40.8855 40.8855C45.3698 36.4012 47.9231 30.3413 48 24C47.9231 17.6587 45.3698 11.5988 40.8855 7.11451C36.4012 2.63021 30.3413 0.0769427 24 0ZM37.7143 25.7143H25.7143V37.7143H22.2857V25.7143H10.2857V22.2857H22.2857V10.2857H25.7143V22.2857H37.7143V25.7143Z" fill="#FF6B8B"/>
<path d="M37.7142 25.7147H25.7142V37.7147H22.2856V25.7147H10.2856V22.2861H22.2856V10.2861H25.7142V22.2861H37.7142V25.7147Z" fill="white"/>
</svg>
