<svg width="44" height="48" viewBox="0 0 44 48" fill="none" xmlns="http://www.w3.org/2000/svg">
<path d="M0 42.5143V17.8286C0 16.96 0.195249 16.1371 0.585749 15.36C0.976249 14.5829 1.51433 13.9429 2.2 13.44L18.7 1.09714C19.6625 0.365714 20.7625 0 22 0C23.2375 0 24.3375 0.365714 25.3 1.09714L41.8 13.44C42.4875 13.9429 43.0265 14.5829 43.417 15.36C43.8075 16.1371 44.0018 16.96 44 17.8286V42.5143C44 44.0228 43.461 45.3147 42.383 46.3899C41.305 47.4651 40.0107 48.0018 38.5 48H30.25C29.4708 48 28.8182 47.7367 28.292 47.21C27.7658 46.6834 27.5018 46.0324 27.5 45.2571V31.5429C27.5 30.7657 27.236 30.1147 26.708 29.5899C26.18 29.0651 25.5273 28.8018 24.75 28.8H19.25C18.4708 28.8 17.8182 29.0633 17.292 29.5899C16.7658 30.1166 16.5018 30.7675 16.5 31.5429V45.2571C16.5 46.0343 16.236 46.6862 15.708 47.2128C15.18 47.7394 14.5273 48.0018 13.75 48H5.5C3.9875 48 2.69317 47.4633 1.617 46.3899C0.540833 45.3166 0.00183333 44.0247 0 42.5143Z" fill="#FF6B8B"/>
</svg>
