<svg width="303" height="93" viewBox="0 0 303 93" fill="none" xmlns="http://www.w3.org/2000/svg">
<path d="M47.1398 31.7739C47.3933 31.7969 47.6813 31.7508 48.0038 31.6356C48.3494 31.5204 48.5568 31.4628 48.6259 31.4628C48.9945 31.4628 49.1904 31.4628 49.2134 31.4628C49.2595 31.4398 49.3747 31.4744 49.559 31.5665C49.7433 31.6587 49.9392 31.7278 50.1465 31.7739C50.0774 31.9812 49.8585 32.442 49.4899 33.1563C49.1443 33.8705 48.96 34.412 48.9369 34.7806C48.8909 35.3796 48.695 36.163 48.3494 37.1307C48.0038 38.0984 47.7965 38.8126 47.7273 39.2734C47.5891 40.1259 47.3241 40.6673 46.9325 40.8977C46.5408 41.1281 45.9993 41.0936 45.3081 40.794C44.7321 40.5406 44.352 40.3678 44.1677 40.2756C43.9833 40.1604 43.799 39.9992 43.6147 39.7918C43.4304 39.5844 43.3958 39.354 43.511 39.1006C43.6262 38.8472 43.8336 38.5016 44.1331 38.0638C42.2208 36.8657 40.3085 36.5662 38.3961 37.1652C37.152 37.626 36.5414 38.3288 36.5645 39.2734C36.5875 40.218 37.1059 41.1281 38.1197 42.0036C38.7878 42.5566 39.7209 43.1556 40.919 43.8008C42.1171 44.4459 43.1539 44.9988 44.0294 45.4596C44.9049 45.9204 45.7344 46.6116 46.5177 47.5332C47.3241 48.4318 47.831 49.4916 48.0384 50.7128C48.3149 52.3486 48.3149 53.9384 48.0384 55.482C47.7849 57.0257 47.1398 58.4196 46.103 59.6638C45.0893 60.931 43.7299 61.7374 42.0249 62.083C41.4029 62.1982 40.8384 62.2673 40.3315 62.2904C39.8246 62.3364 39.2832 62.2788 38.7072 62.1176C38.1542 61.9793 37.728 61.8756 37.4285 61.8065C37.152 61.7604 36.6912 61.53 36.0461 61.1153C35.424 60.7236 35.0323 60.4702 34.871 60.355C34.7097 60.2628 34.2374 59.9403 33.4541 59.3873C33.2467 59.2491 33.0969 59.1454 33.0048 59.0763L32.6937 59.3873V59.6984C32.4403 59.9748 32.3366 60.2744 32.3827 60.5969C32.4518 60.9425 32.3597 61.242 32.1062 61.4955C31.9219 61.7028 31.6915 61.818 31.415 61.8411C31.1385 61.8872 30.9081 61.8756 30.7238 61.8065C30.5395 61.7604 30.263 61.6568 29.8944 61.4955C29.5257 61.3342 29.2608 61.2305 29.0995 61.1844C28.6617 61.0232 28.3161 60.8734 28.0627 60.7352C27.8323 60.62 27.6825 60.4587 27.6134 60.2513C27.5443 60.044 27.5213 59.8596 27.5443 59.6984C27.5673 59.5601 27.6134 59.2952 27.6825 58.9035C27.7747 58.5118 27.8438 58.1777 27.8899 57.9012C28.3507 54.8139 28.7539 52.5099 29.0995 50.9892C29.4451 51.1275 29.7792 51.2312 30.1017 51.3003C30.4243 51.3464 30.6893 51.3694 30.8966 51.3694C31.127 51.3694 31.4496 51.3579 31.8643 51.3348C32.3021 51.3118 32.6822 51.3003 33.0048 51.3003C33.0048 52.314 33.12 53.2472 33.3504 54.0996C33.5808 54.9521 33.9494 55.7124 34.4563 56.3806C34.9632 57.0488 35.6198 57.498 36.4262 57.7284C37.2326 57.9358 38.2003 57.9012 39.3293 57.6248C40.2969 57.3483 40.9881 56.9336 41.4029 56.3806C41.8176 55.8276 41.9673 55.2171 41.8521 54.5489C41.7369 53.8808 41.5065 53.2241 41.1609 52.579C40.8384 51.9339 40.4237 51.3118 39.9168 50.7128C39.1795 49.8372 37.9584 48.9272 36.2534 47.9825C34.5715 47.0379 33.3849 46.243 32.6937 45.5979C31.9334 44.8836 31.2653 43.8584 30.6893 42.522C30.1133 41.1627 29.8829 39.9876 29.9981 38.9969C30.2054 37.0846 30.8621 35.564 31.968 34.435C33.0739 33.306 34.3757 32.6379 35.8733 32.4305C37.3709 32.2232 38.9261 32.3038 40.5389 32.6724C42.1747 33.018 43.6723 33.6171 45.0317 34.4696C45.4233 33.6401 45.8265 32.5342 46.2413 31.1518C46.1952 31.1518 46.2413 31.2094 46.3795 31.3246C46.7942 31.6241 47.0477 31.7739 47.1398 31.7739ZM54.9563 40.172C57.3294 40.2411 59.6334 40.1489 61.8683 39.8955C62.0296 40.6328 62.0987 41.5774 62.0757 42.7294C62.0526 43.8814 62.0757 44.8376 62.1448 45.5979C62.3291 47.372 63.1355 49.9755 64.564 53.4084C65.9003 52.0721 67.2021 49.3649 68.4693 45.2868C68.5384 45.0795 68.6421 44.803 68.7803 44.4574C68.9416 44.0888 69.0683 43.7662 69.1605 43.4897C69.2526 43.1902 69.3218 42.8907 69.3678 42.5912C69.5061 41.6465 69.6904 41.0475 69.9208 40.794C70.1512 40.5176 70.6696 40.4139 71.476 40.483C71.5912 40.483 71.8792 40.4715 72.34 40.4484C72.8238 40.4254 73.204 40.46 73.4805 40.5521C73.78 40.6212 74.0104 40.794 74.1717 41.0705C74.379 41.3931 74.5864 42.1995 74.7938 43.4897C75.6462 48.7889 76.948 52.291 78.699 53.996C78.8834 53.6504 79.1829 53.1089 79.5976 52.3716C80.0354 51.6344 80.381 51.0468 80.6344 50.6091C80.8878 50.1483 81.1758 49.5953 81.4984 48.9502C81.821 48.282 82.0859 47.66 82.2933 47.084C82.5928 46.2776 82.7426 45.091 82.7426 43.5243C82.7656 41.9345 82.9154 40.7249 83.1918 39.8955C83.3762 39.9416 83.5835 39.9992 83.8139 40.0683C84.0443 40.1144 84.1826 40.1374 84.2286 40.1374C84.2978 40.1374 84.4475 40.1489 84.6779 40.172C84.9083 40.195 85.1157 40.195 85.3 40.172C85.5074 40.1489 85.7723 40.1259 86.0949 40.1028C86.4174 40.0798 86.6594 40.0683 86.8206 40.0683C87.005 40.0452 87.2238 40.0452 87.4773 40.0683C87.7538 40.0913 88.0302 40.1259 88.3067 40.172C88.1915 41.1857 88.1915 42.188 88.3067 43.1787C88.2146 43.2017 87.9957 43.2478 87.6501 43.3169C87.3275 43.386 87.1086 43.4436 86.9934 43.4897C86.8782 43.5128 86.6824 43.5704 86.4059 43.6625C86.1525 43.7316 85.9682 43.8123 85.853 43.9044C85.7378 43.9736 85.588 44.0772 85.4037 44.2155C85.2194 44.3537 85.0696 44.515 84.9544 44.6993C84.8622 44.8606 84.7816 45.0564 84.7125 45.2868C84.459 46.0702 84.0098 47.1646 83.3646 48.57C82.7426 49.9755 82.3854 50.7819 82.2933 50.9892C81.8555 52.026 81.1298 53.4891 80.116 55.3784C79.1253 57.2446 78.4456 58.5809 78.077 59.3873C77.2014 61.3457 76.3374 61.1729 75.485 58.8689C75.2085 58.1316 74.9781 57.3137 74.7938 56.4152C74.5173 55.1019 73.8837 53.2932 72.893 50.9892C71.9022 48.6852 71.3262 47.2913 71.165 46.8075C69.7595 49.7566 68.861 53.4545 68.4693 57.9012C68.4232 58.362 68.3886 58.6616 68.3656 58.7998C68.3426 58.9611 68.2734 59.1454 68.1582 59.3528C68.043 59.5832 67.8702 59.7329 67.6398 59.802C67.4094 59.8942 67.0869 59.9518 66.6722 59.9748C65.5432 60.067 64.7714 60.1937 64.3566 60.355C63.9419 60.5163 63.3083 60.8964 62.4558 61.4955C60.8891 59.0302 59.5874 55.5281 58.5506 50.9892C58.251 49.6529 57.652 48.0516 56.7534 46.1854C56.6152 45.8859 56.4309 45.644 56.2005 45.4596C55.9931 45.2523 55.7397 45.1025 55.4402 45.0104C55.1406 44.8952 54.8757 44.8145 54.6453 44.7684C54.4149 44.6993 54.1038 44.6302 53.7122 44.5611C53.3435 44.492 53.0555 44.4344 52.8482 44.3883C52.9173 43.8814 52.9518 43.3745 52.9518 42.8676C52.9749 42.3608 52.9864 41.9115 52.9864 41.5198C53.0094 41.1051 53.1707 40.771 53.4702 40.5176C53.7928 40.2641 54.2882 40.1489 54.9563 40.172ZM110.823 44.3883C110.869 44.5035 110.961 44.78 111.1 45.2177C111.261 45.6324 111.376 45.9435 111.445 46.1508C111.514 46.3352 111.583 46.6232 111.653 47.0148C111.722 47.4065 111.722 47.7176 111.653 47.948C111.606 48.1553 111.491 48.3857 111.307 48.6392C111.123 48.8696 110.858 49.0539 110.512 49.1921C109.544 49.6068 107.839 49.8142 105.397 49.8142C104.89 49.8142 104.476 49.8257 104.153 49.8488C103.83 49.8488 103.358 49.8603 102.736 49.8833C102.114 49.9064 101.596 49.964 101.181 50.0561C100.766 50.1252 100.294 50.2289 99.7639 50.3672C99.257 50.4824 98.8538 50.6436 98.5543 50.851C98.2548 51.0584 97.9898 51.3118 97.7594 51.6113C97.5521 51.8878 97.4599 52.2334 97.4829 52.6481C97.506 53.0398 97.6442 53.4891 97.8977 53.996C98.3815 54.9176 99.1418 55.5281 100.179 55.8276C101.238 56.1041 102.287 56.1156 103.324 55.8622C104.36 55.5857 105.259 55.171 106.019 54.618C106.25 54.4337 106.549 54.1688 106.918 53.8232C107.286 53.4776 107.586 53.1896 107.816 52.9592C108.07 52.7288 108.358 52.5214 108.68 52.3371C109.003 52.1528 109.279 52.0721 109.51 52.0952C109.74 52.1182 109.971 52.291 110.201 52.6136C110.431 52.9131 110.639 53.3739 110.823 53.996C111.03 54.6411 111.088 55.0904 110.996 55.3438C110.904 55.5742 110.547 55.8276 109.925 56.1041C109.602 56.2424 109.141 56.5419 108.542 57.0027C107.966 57.4635 107.517 57.763 107.194 57.9012C105.766 58.4312 103.969 58.8228 101.803 59.0763C101.642 59.0993 101.296 59.1569 100.766 59.2491C100.236 59.3412 99.8791 59.3873 99.6948 59.3873C99.3031 59.3873 98.8769 59.2836 98.4161 59.0763C97.9783 58.8689 97.4829 58.604 96.93 58.2814C96.377 57.9358 95.9969 57.7169 95.7895 57.6248C95.6513 57.5556 95.3517 57.4174 94.8909 57.21C94.4301 57.0027 94.0961 56.8414 93.8887 56.7262C93.7044 56.611 93.4509 56.4497 93.1284 56.2424C92.8058 56.012 92.5409 55.77 92.3335 55.5166C92.1492 55.2632 91.9994 54.9636 91.8842 54.618C91.2852 53.0283 90.9857 51.3233 90.9857 49.5032C90.9857 46.7614 92.0801 44.2961 94.2689 42.1073C96.4807 39.8955 98.9921 38.755 101.803 38.6859C106.434 38.5476 109.441 40.4484 110.823 44.3883ZM100.282 47.395C100.397 47.395 100.662 47.372 101.077 47.3259C101.515 47.2798 101.826 47.2452 102.01 47.2222C102.195 47.1992 102.483 47.1646 102.874 47.1185C103.266 47.0494 103.554 46.9803 103.738 46.9112C103.923 46.819 104.153 46.7153 104.429 46.6001C104.706 46.4619 104.89 46.3121 104.982 46.1508C105.075 45.9896 105.155 45.8052 105.224 45.5979C105.317 45.3675 105.317 45.1025 105.224 44.803C105.155 44.5035 105.017 44.1694 104.81 43.8008C103.98 42.3032 102.759 41.9115 101.146 42.6257C99.9943 43.1096 99.1073 43.8929 98.4852 44.9758C97.8631 46.0817 97.9207 46.8305 98.658 47.2222C99.0266 47.4065 99.5681 47.4641 100.282 47.395ZM134.246 44.3883C134.292 44.5035 134.384 44.78 134.522 45.2177C134.683 45.6324 134.799 45.9435 134.868 46.1508C134.937 46.3352 135.006 46.6232 135.075 47.0148C135.144 47.4065 135.144 47.7176 135.075 47.948C135.029 48.1553 134.914 48.3857 134.729 48.6392C134.545 48.8696 134.28 49.0539 133.935 49.1921C132.967 49.6068 131.262 49.8142 128.82 49.8142C128.313 49.8142 127.898 49.8257 127.576 49.8488C127.253 49.8488 126.781 49.8603 126.159 49.8833C125.536 49.9064 125.018 49.964 124.603 50.0561C124.189 50.1252 123.716 50.2289 123.186 50.3672C122.68 50.4824 122.276 50.6436 121.977 50.851C121.677 51.0584 121.412 51.3118 121.182 51.6113C120.975 51.8878 120.882 52.2334 120.905 52.6481C120.928 53.0398 121.067 53.4891 121.32 53.996C121.804 54.9176 122.564 55.5281 123.601 55.8276C124.661 56.1041 125.709 56.1156 126.746 55.8622C127.783 55.5857 128.681 55.171 129.442 54.618C129.672 54.4337 129.972 54.1688 130.34 53.8232C130.709 53.4776 131.008 53.1896 131.239 52.9592C131.492 52.7288 131.78 52.5214 132.103 52.3371C132.425 52.1528 132.702 52.0721 132.932 52.0952C133.163 52.1182 133.393 52.291 133.624 52.6136C133.854 52.9131 134.061 53.3739 134.246 53.996C134.453 54.6411 134.511 55.0904 134.418 55.3438C134.326 55.5742 133.969 55.8276 133.347 56.1041C133.024 56.2424 132.564 56.5419 131.965 57.0027C131.389 57.4635 130.939 57.763 130.617 57.9012C129.188 58.4312 127.391 58.8228 125.225 59.0763C125.064 59.0993 124.719 59.1569 124.189 59.2491C123.659 59.3412 123.302 59.3873 123.117 59.3873C122.726 59.3873 122.299 59.2836 121.839 59.0763C121.401 58.8689 120.905 58.604 120.352 58.2814C119.8 57.9358 119.419 57.7169 119.212 57.6248C119.074 57.5556 118.774 57.4174 118.313 57.21C117.853 57.0027 117.519 56.8414 117.311 56.7262C117.127 56.611 116.873 56.4497 116.551 56.2424C116.228 56.012 115.963 55.77 115.756 55.5166C115.572 55.2632 115.422 54.9636 115.307 54.618C114.708 53.0283 114.408 51.3233 114.408 49.5032C114.408 46.7614 115.503 44.2961 117.691 42.1073C119.903 39.8955 122.415 38.755 125.225 38.6859C129.856 38.5476 132.863 40.4484 134.246 44.3883ZM123.705 47.395C123.82 47.395 124.085 47.372 124.5 47.3259C124.937 47.2798 125.248 47.2452 125.433 47.2222C125.617 47.1992 125.905 47.1646 126.297 47.1185C126.688 47.0494 126.976 46.9803 127.161 46.9112C127.345 46.819 127.576 46.7153 127.852 46.6001C128.128 46.4619 128.313 46.3121 128.405 46.1508C128.497 45.9896 128.578 45.8052 128.647 45.5979C128.739 45.3675 128.739 45.1025 128.647 44.803C128.578 44.5035 128.44 44.1694 128.232 43.8008C127.403 42.3032 126.182 41.9115 124.569 42.6257C123.417 43.1096 122.53 43.8929 121.908 44.9758C121.286 46.0817 121.343 46.8305 122.08 47.2222C122.449 47.4065 122.991 47.4641 123.705 47.395ZM148.648 30.8753C149.984 30.9905 150.387 32.1886 149.858 34.4696C149.835 34.5617 149.765 34.7806 149.65 35.1262C149.558 35.4718 149.512 35.7022 149.512 35.8174C149.512 35.9326 149.523 36.186 149.547 36.5777C149.639 36.9464 149.777 37.2228 149.961 37.4072C150.146 37.5684 150.318 37.6491 150.48 37.6491C150.641 37.6491 150.917 37.626 151.309 37.58C151.724 37.5108 152.035 37.4763 152.242 37.4763C152.542 37.4763 152.795 37.4993 153.003 37.5454C153.233 37.5684 153.406 37.6376 153.521 37.7528C153.659 37.8449 153.763 37.9371 153.832 38.0292C153.924 38.1214 153.982 38.2827 154.005 38.5131C154.028 38.7204 154.039 38.8817 154.039 38.9969C154.062 39.0891 154.062 39.2849 154.039 39.5844C154.039 39.8609 154.039 40.0568 154.039 40.172C153.878 40.195 153.498 40.2296 152.899 40.2756C152.323 40.2987 151.874 40.3448 151.551 40.4139C151.228 40.46 150.848 40.5636 150.411 40.7249C149.973 40.8632 149.627 41.0936 149.374 41.4161C149.143 41.7387 149.005 42.1304 148.959 42.5912C148.521 46.2776 148.613 49.6875 149.235 52.8209C149.305 53.1896 149.374 53.5352 149.443 53.8577C149.535 54.1572 149.639 54.4913 149.754 54.86C149.892 55.2286 150.03 55.5512 150.169 55.8276C150.33 56.1041 150.514 56.3691 150.722 56.6225C150.952 56.8529 151.194 57.0257 151.447 57.1409C151.701 57.2561 152 57.3137 152.346 57.3137C152.691 57.2907 153.06 57.187 153.452 57.0027C154.12 56.7032 154.627 56.3115 154.972 55.8276C155.341 55.3208 155.548 54.7908 155.595 54.2379C155.664 53.6619 155.687 53.0398 155.664 52.3716C155.664 51.7035 155.618 51.0584 155.525 50.4363C155.456 49.8142 155.468 49.2036 155.56 48.6046C155.606 48.259 155.652 47.9595 155.698 47.706C155.744 47.4526 155.825 47.2452 155.94 47.084C156.055 46.9227 156.147 46.7844 156.217 46.6692C156.309 46.531 156.447 46.4504 156.631 46.4273C156.839 46.3812 156.988 46.3467 157.081 46.3236C157.173 46.2776 157.357 46.2891 157.634 46.3582C157.933 46.4043 158.14 46.4388 158.256 46.4619C158.371 46.4619 158.613 46.5195 158.981 46.6347C159.373 46.7268 159.638 46.7844 159.776 46.8075C159.569 47.5448 159.362 48.5009 159.154 49.676C158.97 50.828 158.809 51.8648 158.67 52.7864C158.555 53.6849 158.336 54.6526 158.014 55.6894C157.691 56.7032 157.299 57.5556 156.839 58.2468C156.378 58.915 155.698 59.468 154.8 59.9057C153.924 60.3665 152.876 60.5969 151.655 60.5969C147.208 60.5969 144.501 59.0993 143.533 56.1041C143.257 55.2516 143.084 54.2724 143.015 53.1665C142.969 52.0606 142.957 51.2312 142.98 50.6782C143.026 50.1022 143.107 49.1115 143.222 47.706C143.452 44.8491 143.66 43.0404 143.844 42.2801C143.752 42.2571 143.522 42.1649 143.153 42.0036C142.807 41.8193 142.531 41.7156 142.323 41.6926C142.093 41.6465 141.644 41.6465 140.976 41.6926C140.33 41.7156 139.881 41.7156 139.628 41.6926C139.443 41.6926 139.282 41.6811 139.144 41.658C139.006 41.635 138.879 41.6235 138.764 41.6235C138.672 41.6004 138.591 41.5659 138.522 41.5198C138.476 41.4737 138.43 41.4392 138.384 41.4161C138.338 41.3931 138.291 41.3355 138.245 41.2433C138.222 41.1512 138.211 41.0936 138.211 41.0705C138.211 41.0244 138.199 40.9323 138.176 40.794C138.153 40.6558 138.13 40.5521 138.107 40.483C137.969 39.8379 137.969 39.354 138.107 39.0315C138.245 38.6859 138.476 38.49 138.798 38.444C139.144 38.3979 139.536 38.3748 139.973 38.3748C140.434 38.3748 140.918 38.3748 141.425 38.3748C141.886 38.3288 142.266 38.2136 142.565 38.0292C142.888 37.8219 143.118 37.5454 143.257 37.1998C143.418 36.8542 143.533 36.5086 143.602 36.163C143.671 35.8174 143.694 35.3912 143.671 34.8843C143.648 34.3544 143.614 33.9166 143.568 33.571C143.522 33.2254 143.452 32.7876 143.36 32.2577C143.291 31.7278 143.245 31.3592 143.222 31.1518C143.591 31.1518 144.443 31.0942 145.779 30.979C147.116 30.8638 148.072 30.8292 148.648 30.8753ZM172.594 50.0907C172.387 50.874 172.387 52.4408 172.594 54.7908C172.825 57.1179 173.101 58.5464 173.424 59.0763C173.608 59.3528 173.873 59.491 174.219 59.491C174.587 59.514 175.244 59.3873 176.188 59.1108C178.492 58.4196 180.013 57.3368 180.75 55.8622C181.488 54.3646 181.326 52.7057 180.267 50.8856C179.76 50.0331 179.138 49.4571 178.4 49.1576C177.686 48.858 176.546 48.7083 174.979 48.7083C174.126 48.7083 173.55 48.8004 173.251 48.9848C172.951 49.146 172.732 49.5147 172.594 50.0907ZM172.905 37.027C172.744 37.4417 172.617 38.0868 172.525 38.9624C172.456 39.8379 172.444 40.7019 172.491 41.5544L172.663 44.5956L174.702 44.7684C175.486 44.8376 176.223 44.7108 176.914 44.3883C177.605 44.0657 178.17 43.628 178.608 43.075C179.068 42.522 179.414 41.9 179.644 41.2088C179.875 40.5176 179.967 39.8494 179.921 39.2043C179.875 38.5361 179.656 37.9256 179.264 37.3726C178.873 36.7966 178.32 36.3704 177.605 36.0939C175.071 35.1492 173.504 35.4603 172.905 37.027ZM179.23 34.4004C180.313 35.0225 181.269 35.9672 182.098 37.2344C182.951 38.4785 183.377 39.596 183.377 40.5867C183.377 41.0244 183.262 41.612 183.031 42.3492C182.824 43.0635 182.582 43.7086 182.306 44.2846L181.234 46.3928L182.824 48.4664C183.285 49.0424 183.723 49.7451 184.137 50.5745C184.575 51.404 184.886 52.1297 185.07 52.7518C185.324 53.7195 185.428 54.4568 185.381 54.9636C185.335 55.4475 185.093 56.1041 184.656 56.9336C184.379 57.4635 183.941 58.0164 183.342 58.5924C182.766 59.1454 182.202 59.5486 181.649 59.802C180.727 60.2628 178.711 60.7582 175.601 61.2881C172.514 61.8411 169.069 62.3019 165.268 62.6705L161.708 63.0161V61.3572C161.708 60.5969 161.8 60.1246 161.984 59.9403C162.169 59.756 162.652 59.6638 163.436 59.6638C164.611 59.6638 165.291 59.3528 165.475 58.7307C165.705 57.8321 165.913 54.5259 166.097 48.812C166.281 43.075 166.27 39.6881 166.062 38.6513C165.901 37.7758 165.74 37.2574 165.579 37.0961C165.417 36.9118 165.129 36.9464 164.715 37.1998C164.3 37.4302 164 37.4763 163.816 37.338C163.655 37.1768 163.493 36.739 163.332 36.0248C163.24 35.564 163.194 35.1262 163.194 34.7115C163.217 34.2737 163.298 33.9857 163.436 33.8475C163.851 33.4558 165.187 33.2254 167.445 33.1563C169.703 33.0641 172.041 33.1448 174.46 33.3982C176.88 33.6286 178.469 33.9627 179.23 34.4004ZM203.643 38.3748C206.316 38.3748 208.516 39.0776 210.244 40.483C212.456 42.234 213.793 44.492 214.253 47.2568C214.737 50.0216 214.207 52.5675 212.664 54.8945C211.281 56.9451 209.196 58.5464 206.408 59.6984C203.643 60.8734 201.121 61.1729 198.84 60.5969C196.95 60.09 195.176 59.3412 193.517 58.3505C191.882 57.3368 190.753 56.0926 190.13 54.618C189.232 52.1528 189.151 49.7912 189.889 47.5332C190.649 45.2523 191.997 43.2478 193.932 41.5198C195.867 39.7688 198.01 38.6168 200.36 38.0638C200.775 37.9716 201.351 38.0062 202.088 38.1675C202.849 38.3057 203.367 38.3748 203.643 38.3748ZM197.63 51.3003C197.492 52.6366 197.676 53.8808 198.183 55.0328C198.69 56.1617 199.427 56.9451 200.395 57.3828C201.386 57.8206 202.572 57.6939 203.954 57.0027C205.752 56.012 206.65 53.708 206.65 50.0907C206.65 49.699 206.673 49.1576 206.719 48.4664C206.788 47.7752 206.846 47.1876 206.892 46.7038C206.938 46.1969 206.927 45.6555 206.858 45.0795C206.811 44.4804 206.685 43.9966 206.477 43.628C206.293 43.2363 205.959 42.9137 205.475 42.6603C204.991 42.4068 204.381 42.2801 203.643 42.2801C202.63 42.2801 201.731 42.5796 200.948 43.1787C200.187 43.7777 199.588 44.5726 199.151 45.5633C198.713 46.554 198.379 47.5102 198.148 48.4318C197.918 49.3304 197.745 50.2865 197.63 51.3003ZM231.892 38.3748C234.565 38.3748 236.765 39.0776 238.493 40.483C240.705 42.234 242.041 44.492 242.502 47.2568C242.986 50.0216 242.456 52.5675 240.912 54.8945C239.53 56.9451 237.445 58.5464 234.657 59.6984C231.892 60.8734 229.369 61.1729 227.088 60.5969C225.199 60.09 223.425 59.3412 221.766 58.3505C220.13 57.3368 219.001 56.0926 218.379 54.618C217.481 52.1528 217.4 49.7912 218.137 47.5332C218.898 45.2523 220.245 43.2478 222.181 41.5198C224.116 39.7688 226.259 38.6168 228.609 38.0638C229.024 37.9716 229.6 38.0062 230.337 38.1675C231.097 38.3057 231.616 38.3748 231.892 38.3748ZM225.879 51.3003C225.741 52.6366 225.925 53.8808 226.432 55.0328C226.939 56.1617 227.676 56.9451 228.644 57.3828C229.634 57.8206 230.821 57.6939 232.203 57.0027C234 56.012 234.899 53.708 234.899 50.0907C234.899 49.699 234.922 49.1576 234.968 48.4664C235.037 47.7752 235.095 47.1876 235.141 46.7038C235.187 46.1969 235.175 45.6555 235.106 45.0795C235.06 44.4804 234.933 43.9966 234.726 43.628C234.542 43.2363 234.208 42.9137 233.724 42.6603C233.24 42.4068 232.629 42.2801 231.892 42.2801C230.878 42.2801 229.98 42.5796 229.197 43.1787C228.436 43.7777 227.837 44.5726 227.399 45.5633C226.962 46.554 226.628 47.5102 226.397 48.4318C226.167 49.3304 225.994 50.2865 225.879 51.3003ZM250.222 54.307C250.245 53.5467 250.291 51.6344 250.36 48.57C250.43 45.4827 250.487 43.0865 250.533 41.3816C250.556 40.7825 250.602 40.0222 250.671 39.1006C250.764 38.156 250.821 37.5108 250.844 37.1652C250.89 36.7736 250.89 36.474 250.844 36.2667C250.821 36.0593 250.729 35.9211 250.568 35.852C250.43 35.7828 250.119 35.7252 249.635 35.6792C249.496 35.6561 249.335 35.6446 249.151 35.6446C248.99 35.6216 248.874 35.61 248.805 35.61C248.759 35.61 248.69 35.5985 248.598 35.5755C248.529 35.5524 248.471 35.5064 248.425 35.4372C248.379 35.3681 248.333 35.2875 248.287 35.1953C248.241 35.1032 248.183 34.9649 248.114 34.7806C247.63 33.5134 247.665 32.6494 248.218 32.1886C248.771 31.7048 249.738 31.4628 251.121 31.4628C251.535 31.4628 252.054 31.3707 252.676 31.1864C253.321 30.979 253.805 30.8753 254.127 30.8753C254.266 30.8753 254.634 30.8638 255.233 30.8408C255.832 30.8177 256.259 30.8177 256.512 30.8408C256.789 30.8638 257.134 30.9214 257.549 31.0136C257.987 31.0827 258.309 31.2324 258.517 31.4628C258.724 31.6932 258.862 31.9928 258.931 32.3614C258.931 32.3844 258.989 32.6264 259.104 33.0872C259.242 33.548 259.288 33.9051 259.242 34.1585C259.15 34.5272 258.989 34.7691 258.759 34.8843C258.528 34.9995 258.217 35.0801 257.825 35.1262C257.434 35.1492 257.111 35.2299 256.858 35.3681C256.489 35.5755 256.201 35.9787 255.994 36.5777C255.809 37.1537 255.706 37.6606 255.683 38.0984C255.66 38.5131 255.648 39.1006 255.648 39.8609C255.648 39.9992 255.648 40.1028 255.648 40.172C255.648 40.4254 255.637 40.8977 255.614 41.5889C255.614 42.2801 255.614 42.7985 255.614 43.1441C255.637 43.4897 255.66 43.939 255.683 44.492C255.706 45.0219 255.763 45.4942 255.855 45.9089C255.948 46.3236 256.074 46.7153 256.236 47.084C258.563 45.0104 260.567 43.4091 262.249 42.2801C262.641 42.0267 262.963 41.635 263.217 41.1051C263.47 40.5752 263.724 40.195 263.977 39.9646C264.231 39.7342 264.657 39.7112 265.256 39.8955C265.44 39.9416 266.039 40.2411 267.053 40.794C267.375 40.9784 267.629 41.1627 267.813 41.347C268.021 41.5083 268.136 41.6811 268.159 41.8654C268.205 42.0267 268.205 42.1764 268.159 42.3147C268.113 42.4529 268.009 42.6027 267.848 42.764C267.687 42.9022 267.514 43.0289 267.329 43.1441C267.168 43.2593 266.949 43.386 266.673 43.5243C266.396 43.6395 266.154 43.7432 265.947 43.8353C265.763 43.9275 265.532 44.0312 265.256 44.1464C265.002 44.2385 264.807 44.3192 264.668 44.3883C263.954 44.7108 263.493 45.1601 263.286 45.7361C263.102 46.2891 263.136 46.9342 263.39 47.6715C263.643 48.3857 263.943 49.0769 264.288 49.7451C264.657 50.4132 265.071 51.139 265.532 51.9224C265.993 52.7057 266.304 53.3048 266.465 53.7195C267.226 55.747 268.021 56.8414 268.85 57.0027C269.08 57.0488 269.368 57.0142 269.714 56.899C270.06 56.7608 270.336 56.6456 270.544 56.5534C270.774 56.4382 271.004 56.4612 271.235 56.6225C271.488 56.7608 271.695 57.0948 271.857 57.6248C271.995 58.0625 271.983 58.4196 271.822 58.6961C271.661 58.9496 271.454 59.0993 271.2 59.1454C270.97 59.2145 270.647 59.2606 270.232 59.2836C269.818 59.3297 269.564 59.3643 269.472 59.3873C269.311 59.4104 269.115 59.5025 268.885 59.6638C268.654 59.8251 268.447 59.9288 268.263 59.9748H267.951L267.675 59.6984H267.364L266.742 60.2859V60.5969L266.465 60.8734C266.12 61.0347 265.521 61.0347 264.668 60.8734C264.323 60.8504 264.046 60.7928 263.839 60.7006C263.655 60.6315 263.539 60.5163 263.493 60.355C263.47 60.1937 263.459 60.0555 263.459 59.9403C263.482 59.8251 263.528 59.6408 263.597 59.3873C263.689 59.1339 263.747 58.938 263.77 58.7998C263.885 58.2238 263.839 57.6478 263.631 57.0718C263.447 56.4728 263.148 55.8161 262.733 55.1019C262.341 54.3876 262.076 53.8232 261.938 53.4084C261.155 51.1044 260.36 49.2958 259.553 47.9825C257.595 48.9732 256.489 49.8833 256.236 50.7128C256.167 51.1966 256.143 51.5652 256.167 51.8187C256.19 52.0491 256.247 52.4177 256.339 52.9246C256.455 53.4315 256.524 53.7886 256.547 53.996C256.616 54.595 256.892 55.0558 257.376 55.3784C257.883 55.7009 258.206 56.0465 258.344 56.4152C258.551 57.0142 258.655 58.0049 258.655 59.3873C258.678 59.779 258.563 60.0785 258.309 60.2859C258.079 60.5163 257.733 60.6545 257.272 60.7006C256.812 60.7467 256.374 60.7582 255.959 60.7352C255.544 60.7352 255.049 60.7121 254.473 60.666C253.897 60.62 253.482 60.5969 253.229 60.5969C252.423 60.5969 250.625 60.7928 247.838 61.1844C247.215 61.2766 246.732 61.219 246.386 61.0116C246.04 60.8273 245.833 60.5048 245.764 60.044C245.695 59.6062 245.672 59.1684 245.695 58.7307C245.741 58.2929 245.799 57.74 245.868 57.0718C245.96 56.4036 246.006 55.8852 246.006 55.5166C246.167 55.5396 246.513 55.6203 247.043 55.7585C247.573 55.8737 247.964 55.9428 248.218 55.9659C248.471 55.9889 248.782 55.9774 249.151 55.9313C249.519 55.8852 249.784 55.724 249.946 55.4475C250.107 55.171 250.199 54.7908 250.222 54.307Z" fill="#4A6DE5"/>
<path d="M50.0198 34.6538C50.2733 34.6768 50.5613 34.6307 50.8838 34.5155C51.2294 34.4003 51.4368 34.3427 51.5059 34.3427C51.8745 34.3427 52.0704 34.3427 52.0934 34.3427C52.1395 34.3197 52.2547 34.3542 52.439 34.4464C52.6233 34.5386 52.8192 34.6077 53.0265 34.6538C52.9574 34.8611 52.7385 35.3219 52.3699 36.0362C52.0243 36.7504 51.84 37.2918 51.8169 37.6605C51.7709 38.2595 51.575 39.0429 51.2294 40.0106C50.8838 40.9782 50.6765 41.6925 50.6073 42.1533C50.4691 43.0058 50.2041 43.5472 49.8125 43.7776C49.4208 44.008 48.8793 43.9734 48.1881 43.6739C47.6121 43.4205 47.232 43.2477 47.0477 43.1555C46.8633 43.0403 46.679 42.879 46.4947 42.6717C46.3104 42.4643 46.2758 42.2339 46.391 41.9805C46.5062 41.727 46.7136 41.3814 47.0131 40.9437C45.1008 39.7456 43.1885 39.4461 41.2761 40.0451C40.032 40.5059 39.4214 41.2086 39.4445 42.1533C39.4675 43.0979 39.9859 44.008 40.9997 44.8835C41.6678 45.4365 42.6009 46.0355 43.799 46.6806C44.9971 47.3258 46.0339 47.8787 46.9094 48.3395C47.7849 48.8003 48.6144 49.4915 49.3977 50.4131C50.2041 51.3117 50.711 52.3715 50.9184 53.5926C51.1949 55.2285 51.1949 56.8182 50.9184 58.3619C50.6649 59.9056 50.0198 61.2995 48.983 62.5437C47.9693 63.8109 46.6099 64.6173 44.9049 64.9629C44.2829 65.0781 43.7184 65.1472 43.2115 65.1702C42.7046 65.2163 42.1632 65.1587 41.5872 64.9974C41.0342 64.8592 40.608 64.7555 40.3085 64.6864C40.032 64.6403 39.5712 64.4099 38.9261 63.9952C38.304 63.6035 37.9123 63.3501 37.751 63.2349C37.5897 63.1427 37.1174 62.8202 36.3341 62.2672C36.1267 62.129 35.9769 62.0253 35.8848 61.9562L35.5737 62.2672V62.5782C35.3203 62.8547 35.2166 63.1542 35.2627 63.4768C35.3318 63.8224 35.2397 64.1219 34.9862 64.3754C34.8019 64.5827 34.5715 64.6979 34.295 64.721C34.0185 64.767 33.7881 64.7555 33.6038 64.6864C33.4195 64.6403 33.143 64.5366 32.7744 64.3754C32.4057 64.2141 32.1408 64.1104 31.9795 64.0643C31.5417 63.903 31.1961 63.7533 30.9427 63.615C30.7123 63.4998 30.5625 63.3386 30.4934 63.1312C30.4243 62.9238 30.4013 62.7395 30.4243 62.5782C30.4473 62.44 30.4934 62.175 30.5625 61.7834C30.6547 61.3917 30.7238 61.0576 30.7699 60.7811C31.2307 57.6938 31.6339 55.3898 31.9795 53.8691C32.3251 54.0074 32.6592 54.111 32.9817 54.1802C33.3043 54.2262 33.5693 54.2493 33.7766 54.2493C34.007 54.2493 34.3296 54.2378 34.7443 54.2147C35.1821 54.1917 35.5622 54.1802 35.8848 54.1802C35.8848 55.1939 36 56.127 36.2304 56.9795C36.4608 57.832 36.8294 58.5923 37.3363 59.2605C37.8432 59.9286 38.4998 60.3779 39.3062 60.6083C40.1126 60.8157 41.0803 60.7811 42.2093 60.5046C43.1769 60.2282 43.8681 59.8134 44.2829 59.2605C44.6976 58.7075 44.8473 58.097 44.7321 57.4288C44.6169 56.7606 44.3865 56.104 44.0409 55.4589C43.7184 54.8138 43.3037 54.1917 42.7968 53.5926C42.0595 52.7171 40.8384 51.807 39.1334 50.8624C37.4515 49.9178 36.2649 49.1229 35.5737 48.4778C34.8134 47.7635 34.1453 46.7382 33.5693 45.4019C32.9933 44.0426 32.7629 42.8675 32.8781 41.8768C33.0854 39.9645 33.7421 38.4438 34.848 37.3149C35.9539 36.1859 37.2557 35.5178 38.7533 35.3104C40.2509 35.103 41.8061 35.1837 43.4189 35.5523C45.0547 35.8979 46.5523 36.497 47.9117 37.3494C48.3033 36.52 48.7065 35.4141 49.1213 34.0317C49.0752 34.0317 49.1213 34.0893 49.2595 34.2045C49.6742 34.504 49.9277 34.6538 50.0198 34.6538ZM57.8363 43.0518C60.2094 43.121 62.5134 43.0288 64.7483 42.7754C64.9096 43.5126 64.9787 44.4573 64.9557 45.6093C64.9326 46.7613 64.9557 47.7174 65.0248 48.4778C65.2091 50.2518 66.0155 52.8554 67.444 56.2883C68.7803 54.952 70.0821 52.2448 71.3493 48.1667C71.4184 47.9594 71.5221 47.6829 71.6603 47.3373C71.8216 46.9686 71.9483 46.6461 72.0405 46.3696C72.1326 46.0701 72.2018 45.7706 72.2478 45.471C72.3861 44.5264 72.5704 43.9274 72.8008 43.6739C73.0312 43.3974 73.5496 43.2938 74.356 43.3629C74.4712 43.3629 74.7592 43.3514 75.22 43.3283C75.7038 43.3053 76.084 43.3398 76.3605 43.432C76.66 43.5011 76.8904 43.6739 77.0517 43.9504C77.259 44.273 77.4664 45.0794 77.6738 46.3696C78.5262 51.6688 79.828 55.1709 81.579 56.8758C81.7634 56.5302 82.0629 55.9888 82.4776 55.2515C82.9154 54.5142 83.261 53.9267 83.5144 53.489C83.7678 53.0282 84.0558 52.4752 84.3784 51.8301C84.701 51.1619 84.9659 50.5398 85.1733 49.9638C85.4728 49.1574 85.6226 47.9709 85.6226 46.4042C85.6456 44.8144 85.7954 43.6048 86.0718 42.7754C86.2562 42.8214 86.4635 42.879 86.6939 42.9482C86.9243 42.9942 87.0626 43.0173 87.1086 43.0173C87.1778 43.0173 87.3275 43.0288 87.5579 43.0518C87.7883 43.0749 87.9957 43.0749 88.18 43.0518C88.3874 43.0288 88.6523 43.0058 88.9749 42.9827C89.2974 42.9597 89.5394 42.9482 89.7006 42.9482C89.885 42.9251 90.1038 42.9251 90.3573 42.9482C90.6338 42.9712 90.9102 43.0058 91.1867 43.0518C91.0715 44.0656 91.0715 45.0678 91.1867 46.0586C91.0946 46.0816 90.8757 46.1277 90.5301 46.1968C90.2075 46.2659 89.9886 46.3235 89.8734 46.3696C89.7582 46.3926 89.5624 46.4502 89.2859 46.5424C89.0325 46.6115 88.8482 46.6922 88.733 46.7843C88.6178 46.8534 88.468 46.9571 88.2837 47.0954C88.0994 47.2336 87.9496 47.3949 87.8344 47.5792C87.7422 47.7405 87.6616 47.9363 87.5925 48.1667C87.339 48.9501 86.8898 50.0445 86.2446 51.4499C85.6226 52.8554 85.2654 53.6618 85.1733 53.8691C84.7355 54.9059 84.0098 56.369 82.996 58.2582C82.0053 60.1245 81.3256 61.4608 80.957 62.2672C80.0814 64.2256 79.2174 64.0528 78.365 61.7488C78.0885 61.0115 77.8581 60.1936 77.6738 59.295C77.3973 57.9818 76.7637 56.1731 75.773 53.8691C74.7822 51.5651 74.2062 50.1712 74.045 49.6874C72.6395 52.6365 71.741 56.3344 71.3493 60.7811C71.3032 61.2419 71.2686 61.5414 71.2456 61.6797C71.2226 61.841 71.1534 62.0253 71.0382 62.2326C70.923 62.463 70.7502 62.6128 70.5198 62.6819C70.2894 62.7741 69.9669 62.8317 69.5522 62.8547C68.4232 62.9469 67.6514 63.0736 67.2366 63.2349C66.8219 63.3962 66.1883 63.7763 65.3358 64.3754C63.7691 61.9101 62.4674 58.408 61.4306 53.8691C61.131 52.5328 60.532 50.9315 59.6334 49.0653C59.4952 48.7658 59.3109 48.5238 59.0805 48.3395C58.8731 48.1322 58.6197 47.9824 58.3202 47.8902C58.0206 47.775 57.7557 47.6944 57.5253 47.6483C57.2949 47.5792 56.9838 47.5101 56.5922 47.441C56.2235 47.3718 55.9355 47.3142 55.7282 47.2682C55.7973 46.7613 55.8318 46.2544 55.8318 45.7475C55.8549 45.2406 55.8664 44.7914 55.8664 44.3997C55.8894 43.985 56.0507 43.6509 56.3502 43.3974C56.6728 43.144 57.1682 43.0288 57.8363 43.0518ZM113.703 47.2682C113.749 47.3834 113.841 47.6598 113.98 48.0976C114.141 48.5123 114.256 48.8234 114.325 49.0307C114.394 49.215 114.463 49.503 114.533 49.8947C114.602 50.2864 114.602 50.5974 114.533 50.8278C114.486 51.0352 114.371 51.2656 114.187 51.519C114.003 51.7494 113.738 51.9338 113.392 52.072C112.424 52.4867 110.719 52.6941 108.277 52.6941C107.77 52.6941 107.356 52.7056 107.033 52.7286C106.71 52.7286 106.238 52.7402 105.616 52.7632C104.994 52.7862 104.476 52.8438 104.061 52.936C103.646 53.0051 103.174 53.1088 102.644 53.247C102.137 53.3622 101.734 53.5235 101.434 53.7309C101.135 53.9382 100.87 54.1917 100.639 54.4912C100.432 54.7677 100.34 55.1133 100.363 55.528C100.386 55.9197 100.524 56.369 100.778 56.8758C101.262 57.7974 102.022 58.408 103.059 58.7075C104.118 58.984 105.167 58.9955 106.204 58.7421C107.24 58.4656 108.139 58.0509 108.899 57.4979C109.13 57.3136 109.429 57.0486 109.798 56.703C110.166 56.3574 110.466 56.0694 110.696 55.839C110.95 55.6086 111.238 55.4013 111.56 55.217C111.883 55.0326 112.159 54.952 112.39 54.975C112.62 54.9981 112.851 55.1709 113.081 55.4934C113.311 55.793 113.519 56.2538 113.703 56.8758C113.91 57.521 113.968 57.9702 113.876 58.2237C113.784 58.4541 113.427 58.7075 112.805 58.984C112.482 59.1222 112.021 59.4218 111.422 59.8826C110.846 60.3434 110.397 60.6429 110.074 60.7811C108.646 61.311 106.849 61.7027 104.683 61.9562C104.522 61.9792 104.176 62.0368 103.646 62.129C103.116 62.2211 102.759 62.2672 102.575 62.2672C102.183 62.2672 101.757 62.1635 101.296 61.9562C100.858 61.7488 100.363 61.4838 99.81 61.1613C99.257 60.8157 98.8769 60.5968 98.6695 60.5046C98.5313 60.4355 98.2317 60.2973 97.7709 60.0899C97.3101 59.8826 96.9761 59.7213 96.7687 59.6061C96.5844 59.4909 96.3309 59.3296 96.0084 59.1222C95.6858 58.8918 95.4209 58.6499 95.2135 58.3965C95.0292 58.143 94.8794 57.8435 94.7642 57.4979C94.1652 55.9082 93.8657 54.2032 93.8657 52.383C93.8657 49.6413 94.9601 47.176 97.1489 44.9872C99.3607 42.7754 101.872 41.6349 104.683 41.5658C109.314 41.4275 112.321 43.3283 113.703 47.2682ZM103.162 50.2749C103.278 50.2749 103.542 50.2518 103.957 50.2058C104.395 50.1597 104.706 50.1251 104.89 50.1021C105.075 50.079 105.363 50.0445 105.754 49.9984C106.146 49.9293 106.434 49.8602 106.618 49.791C106.803 49.6989 107.033 49.5952 107.31 49.48C107.586 49.3418 107.77 49.192 107.862 49.0307C107.955 48.8694 108.035 48.6851 108.104 48.4778C108.197 48.2474 108.197 47.9824 108.104 47.6829C108.035 47.3834 107.897 47.0493 107.69 46.6806C106.86 45.183 105.639 44.7914 104.026 45.5056C102.874 45.9894 101.987 46.7728 101.365 47.8557C100.743 48.9616 100.801 49.7104 101.538 50.1021C101.907 50.2864 102.448 50.344 103.162 50.2749ZM137.126 47.2682C137.172 47.3834 137.264 47.6598 137.402 48.0976C137.563 48.5123 137.679 48.8234 137.748 49.0307C137.817 49.215 137.886 49.503 137.955 49.8947C138.024 50.2864 138.024 50.5974 137.955 50.8278C137.909 51.0352 137.794 51.2656 137.609 51.519C137.425 51.7494 137.16 51.9338 136.815 52.072C135.847 52.4867 134.142 52.6941 131.7 52.6941C131.193 52.6941 130.778 52.7056 130.456 52.7286C130.133 52.7286 129.661 52.7402 129.039 52.7632C128.416 52.7862 127.898 52.8438 127.483 52.936C127.069 53.0051 126.596 53.1088 126.066 53.247C125.56 53.3622 125.156 53.5235 124.857 53.7309C124.557 53.9382 124.292 54.1917 124.062 54.4912C123.855 54.7677 123.762 55.1133 123.785 55.528C123.808 55.9197 123.947 56.369 124.2 56.8758C124.684 57.7974 125.444 58.408 126.481 58.7075C127.541 58.984 128.589 58.9955 129.626 58.7421C130.663 58.4656 131.561 58.0509 132.322 57.4979C132.552 57.3136 132.852 57.0486 133.22 56.703C133.589 56.3574 133.888 56.0694 134.119 55.839C134.372 55.6086 134.66 55.4013 134.983 55.217C135.305 55.0326 135.582 54.952 135.812 54.975C136.043 54.9981 136.273 55.1709 136.504 55.4934C136.734 55.793 136.941 56.2538 137.126 56.8758C137.333 57.521 137.391 57.9702 137.298 58.2237C137.206 58.4541 136.849 58.7075 136.227 58.984C135.904 59.1222 135.444 59.4218 134.845 59.8826C134.269 60.3434 133.819 60.6429 133.497 60.7811C132.068 61.311 130.271 61.7027 128.105 61.9562C127.944 61.9792 127.599 62.0368 127.069 62.129C126.539 62.2211 126.182 62.2672 125.997 62.2672C125.606 62.2672 125.179 62.1635 124.719 61.9562C124.281 61.7488 123.785 61.4838 123.232 61.1613C122.68 60.8157 122.299 60.5968 122.092 60.5046C121.954 60.4355 121.654 60.2973 121.193 60.0899C120.733 59.8826 120.399 59.7213 120.191 59.6061C120.007 59.4909 119.753 59.3296 119.431 59.1222C119.108 58.8918 118.843 58.6499 118.636 58.3965C118.452 58.143 118.302 57.8435 118.187 57.4979C117.588 55.9082 117.288 54.2032 117.288 52.383C117.288 49.6413 118.383 47.176 120.571 44.9872C122.783 42.7754 125.295 41.6349 128.105 41.5658C132.736 41.4275 135.743 43.3283 137.126 47.2682ZM126.585 50.2749C126.7 50.2749 126.965 50.2518 127.38 50.2058C127.817 50.1597 128.128 50.1251 128.313 50.1021C128.497 50.079 128.785 50.0445 129.177 49.9984C129.568 49.9293 129.856 49.8602 130.041 49.791C130.225 49.6989 130.456 49.5952 130.732 49.48C131.008 49.3418 131.193 49.192 131.285 49.0307C131.377 48.8694 131.458 48.6851 131.527 48.4778C131.619 48.2474 131.619 47.9824 131.527 47.6829C131.458 47.3834 131.32 47.0493 131.112 46.6806C130.283 45.183 129.062 44.7914 127.449 45.5056C126.297 45.9894 125.41 46.7728 124.788 47.8557C124.166 48.9616 124.223 49.7104 124.96 50.1021C125.329 50.2864 125.871 50.344 126.585 50.2749ZM151.528 33.7552C152.864 33.8704 153.267 35.0685 152.738 37.3494C152.715 37.4416 152.645 37.6605 152.53 38.0061C152.438 38.3517 152.392 38.5821 152.392 38.6973C152.392 38.8125 152.403 39.0659 152.427 39.4576C152.519 39.8262 152.657 40.1027 152.841 40.287C153.026 40.4483 153.198 40.529 153.36 40.529C153.521 40.529 153.797 40.5059 154.189 40.4598C154.604 40.3907 154.915 40.3562 155.122 40.3562C155.422 40.3562 155.675 40.3792 155.883 40.4253C156.113 40.4483 156.286 40.5174 156.401 40.6326C156.539 40.7248 156.643 40.817 156.712 40.9091C156.804 41.0013 156.862 41.1626 156.885 41.393C156.908 41.6003 156.919 41.7616 156.919 41.8768C156.942 41.969 156.942 42.1648 156.919 42.4643C156.919 42.7408 156.919 42.9366 156.919 43.0518C156.758 43.0749 156.378 43.1094 155.779 43.1555C155.203 43.1786 154.754 43.2246 154.431 43.2938C154.108 43.3398 153.728 43.4435 153.291 43.6048C152.853 43.743 152.507 43.9734 152.254 44.296C152.023 44.6186 151.885 45.0102 151.839 45.471C151.401 49.1574 151.493 52.5674 152.115 55.7008C152.185 56.0694 152.254 56.415 152.323 56.7376C152.415 57.0371 152.519 57.3712 152.634 57.7398C152.772 58.1085 152.91 58.431 153.049 58.7075C153.21 58.984 153.394 59.249 153.602 59.5024C153.832 59.7328 154.074 59.9056 154.327 60.0208C154.581 60.136 154.88 60.1936 155.226 60.1936C155.571 60.1706 155.94 60.0669 156.332 59.8826C157 59.583 157.507 59.1914 157.852 58.7075C158.221 58.2006 158.428 57.6707 158.475 57.1178C158.544 56.5418 158.567 55.9197 158.544 55.2515C158.544 54.5834 158.498 53.9382 158.405 53.3162C158.336 52.6941 158.348 52.0835 158.44 51.4845C158.486 51.1389 158.532 50.8394 158.578 50.5859C158.624 50.3325 158.705 50.1251 158.82 49.9638C158.935 49.8026 159.027 49.6643 159.097 49.5491C159.189 49.4109 159.327 49.3302 159.511 49.3072C159.719 49.2611 159.868 49.2266 159.961 49.2035C160.053 49.1574 160.237 49.169 160.514 49.2381C160.813 49.2842 161.02 49.3187 161.136 49.3418C161.251 49.3418 161.493 49.3994 161.861 49.5146C162.253 49.6067 162.518 49.6643 162.656 49.6874C162.449 50.4246 162.242 51.3808 162.034 52.5558C161.85 53.7078 161.689 54.7446 161.55 55.6662C161.435 56.5648 161.216 57.5325 160.894 58.5693C160.571 59.583 160.179 60.4355 159.719 61.1267C159.258 61.7949 158.578 62.3478 157.68 62.7856C156.804 63.2464 155.756 63.4768 154.535 63.4768C150.088 63.4768 147.381 61.9792 146.413 58.984C146.137 58.1315 145.964 57.1523 145.895 56.0464C145.849 54.9405 145.837 54.111 145.86 53.5581C145.906 52.9821 145.987 51.9914 146.102 50.5859C146.332 47.729 146.54 45.9203 146.724 45.16C146.632 45.137 146.402 45.0448 146.033 44.8835C145.687 44.6992 145.411 44.5955 145.203 44.5725C144.973 44.5264 144.524 44.5264 143.856 44.5725C143.211 44.5955 142.761 44.5955 142.508 44.5725C142.323 44.5725 142.162 44.561 142.024 44.5379C141.886 44.5149 141.759 44.5034 141.644 44.5034C141.552 44.4803 141.471 44.4458 141.402 44.3997C141.356 44.3536 141.31 44.319 141.264 44.296C141.218 44.273 141.171 44.2154 141.125 44.1232C141.102 44.031 141.091 43.9734 141.091 43.9504C141.091 43.9043 141.079 43.8122 141.056 43.6739C141.033 43.5357 141.01 43.432 140.987 43.3629C140.849 42.7178 140.849 42.2339 140.987 41.9114C141.125 41.5658 141.356 41.3699 141.678 41.3238C142.024 41.2778 142.416 41.2547 142.853 41.2547C143.314 41.2547 143.798 41.2547 144.305 41.2547C144.766 41.2086 145.146 41.0934 145.445 40.9091C145.768 40.7018 145.998 40.4253 146.137 40.0797C146.298 39.7341 146.413 39.3885 146.482 39.0429C146.551 38.6973 146.574 38.271 146.551 37.7642C146.528 37.2342 146.494 36.7965 146.448 36.4509C146.402 36.1053 146.332 35.6675 146.24 35.1376C146.171 34.6077 146.125 34.239 146.102 34.0317C146.471 34.0317 147.323 33.9741 148.659 33.8589C149.996 33.7437 150.952 33.7091 151.528 33.7552ZM175.474 52.9706C175.267 53.7539 175.267 55.3206 175.474 57.6707C175.705 59.9978 175.981 61.4262 176.304 61.9562C176.488 62.2326 176.753 62.3709 177.099 62.3709C177.467 62.3939 178.124 62.2672 179.068 61.9907C181.372 61.2995 182.893 60.2166 183.63 58.7421C184.368 57.2445 184.206 55.5856 183.147 53.7654C182.64 52.913 182.018 52.337 181.28 52.0374C180.566 51.7379 179.426 51.5882 177.859 51.5882C177.006 51.5882 176.43 51.6803 176.131 51.8646C175.831 52.0259 175.612 52.3946 175.474 52.9706ZM175.785 39.9069C175.624 40.3216 175.497 40.9667 175.405 41.8422C175.336 42.7178 175.324 43.5818 175.371 44.4342L175.543 47.4755L177.582 47.6483C178.366 47.7174 179.103 47.5907 179.794 47.2682C180.485 46.9456 181.05 46.5078 181.488 45.9549C181.948 45.4019 182.294 44.7798 182.524 44.0886C182.755 43.3974 182.847 42.7293 182.801 42.0842C182.755 41.416 182.536 40.8054 182.144 40.2525C181.753 39.6765 181.2 39.2502 180.485 38.9738C177.951 38.0291 176.384 38.3402 175.785 39.9069ZM182.11 37.2803C183.193 37.9024 184.149 38.847 184.978 40.1142C185.831 41.3584 186.257 42.4758 186.257 43.4666C186.257 43.9043 186.142 44.4918 185.911 45.2291C185.704 45.9434 185.462 46.5885 185.186 47.1645L184.114 49.2726L185.704 51.3462C186.165 51.9222 186.603 52.625 187.017 53.4544C187.455 54.2838 187.766 55.0096 187.95 55.6317C188.204 56.5994 188.308 57.3366 188.261 57.8435C188.215 58.3274 187.973 58.984 187.536 59.8134C187.259 60.3434 186.821 60.8963 186.222 61.4723C185.646 62.0253 185.082 62.4285 184.529 62.6819C183.607 63.1427 181.591 63.6381 178.481 64.168C175.394 64.721 171.949 65.1818 168.148 65.5504L164.588 65.896V64.2371C164.588 63.4768 164.68 63.0045 164.864 62.8202C165.049 62.6358 165.532 62.5437 166.316 62.5437C167.491 62.5437 168.171 62.2326 168.355 61.6106C168.585 60.712 168.793 57.4058 168.977 51.6918C169.161 45.9549 169.15 42.568 168.942 41.5312C168.781 40.6557 168.62 40.1373 168.459 39.976C168.297 39.7917 168.009 39.8262 167.595 40.0797C167.18 40.3101 166.88 40.3562 166.696 40.2179C166.535 40.0566 166.373 39.6189 166.212 38.9046C166.12 38.4438 166.074 38.0061 166.074 37.5914C166.097 37.1536 166.178 36.8656 166.316 36.7274C166.731 36.3357 168.067 36.1053 170.325 36.0362C172.583 35.944 174.921 36.0246 177.34 36.2781C179.76 36.5085 181.349 36.8426 182.11 37.2803ZM206.523 41.2547C209.196 41.2547 211.396 41.9574 213.124 43.3629C215.336 45.1139 216.673 47.3718 217.133 50.1366C217.617 52.9014 217.087 55.4474 215.544 57.7744C214.161 59.825 212.076 61.4262 209.288 62.5782C206.523 63.7533 204.001 64.0528 201.72 63.4768C199.83 62.9699 198.056 62.2211 196.397 61.2304C194.762 60.2166 193.633 58.9725 193.01 57.4979C192.112 55.0326 192.031 52.671 192.769 50.4131C193.529 48.1322 194.877 46.1277 196.812 44.3997C198.747 42.6486 200.89 41.4966 203.24 40.9437C203.655 40.8515 204.231 40.8861 204.968 41.0474C205.729 41.1856 206.247 41.2547 206.523 41.2547ZM200.51 54.1802C200.372 55.5165 200.556 56.7606 201.063 57.9126C201.57 59.0416 202.307 59.825 203.275 60.2627C204.266 60.7005 205.452 60.5738 206.834 59.8826C208.632 58.8918 209.53 56.5878 209.53 52.9706C209.53 52.5789 209.553 52.0374 209.599 51.3462C209.668 50.655 209.726 50.0675 209.772 49.5837C209.818 49.0768 209.807 48.5354 209.738 47.9594C209.691 47.3603 209.565 46.8765 209.357 46.5078C209.173 46.1162 208.839 45.7936 208.355 45.5402C207.871 45.2867 207.261 45.16 206.523 45.16C205.51 45.16 204.611 45.4595 203.828 46.0586C203.067 46.6576 202.468 47.4525 202.031 48.4432C201.593 49.4339 201.259 50.3901 201.028 51.3117C200.798 52.2102 200.625 53.1664 200.51 54.1802ZM234.772 41.2547C237.445 41.2547 239.645 41.9574 241.373 43.3629C243.585 45.1139 244.921 47.3718 245.382 50.1366C245.866 52.9014 245.336 55.4474 243.792 57.7744C242.41 59.825 240.325 61.4262 237.537 62.5782C234.772 63.7533 232.249 64.0528 229.968 63.4768C228.079 62.9699 226.305 62.2211 224.646 61.2304C223.01 60.2166 221.881 58.9725 221.259 57.4979C220.361 55.0326 220.28 52.671 221.017 50.4131C221.778 48.1322 223.125 46.1277 225.061 44.3997C226.996 42.6486 229.139 41.4966 231.489 40.9437C231.904 40.8515 232.48 40.8861 233.217 41.0474C233.977 41.1856 234.496 41.2547 234.772 41.2547ZM228.759 54.1802C228.621 55.5165 228.805 56.7606 229.312 57.9126C229.819 59.0416 230.556 59.825 231.524 60.2627C232.514 60.7005 233.701 60.5738 235.083 59.8826C236.88 58.8918 237.779 56.5878 237.779 52.9706C237.779 52.5789 237.802 52.0374 237.848 51.3462C237.917 50.655 237.975 50.0675 238.021 49.5837C238.067 49.0768 238.055 48.5354 237.986 47.9594C237.94 47.3603 237.813 46.8765 237.606 46.5078C237.422 46.1162 237.088 45.7936 236.604 45.5402C236.12 45.2867 235.509 45.16 234.772 45.16C233.758 45.16 232.86 45.4595 232.077 46.0586C231.316 46.6576 230.717 47.4525 230.279 48.4432C229.842 49.4339 229.508 50.3901 229.277 51.3117C229.047 52.2102 228.874 53.1664 228.759 54.1802ZM253.102 57.1869C253.125 56.4266 253.171 54.5142 253.24 51.4499C253.31 48.3626 253.367 45.9664 253.413 44.2614C253.436 43.6624 253.482 42.9021 253.552 41.9805C253.644 41.0358 253.701 40.3907 253.724 40.0451C253.77 39.6534 253.77 39.3539 253.724 39.1466C253.701 38.9392 253.609 38.801 253.448 38.7318C253.31 38.6627 252.999 38.6051 252.515 38.559C252.376 38.536 252.215 38.5245 252.031 38.5245C251.87 38.5014 251.754 38.4899 251.685 38.4899C251.639 38.4899 251.57 38.4784 251.478 38.4554C251.409 38.4323 251.351 38.3862 251.305 38.3171C251.259 38.248 251.213 38.1674 251.167 38.0752C251.121 37.983 251.063 37.8448 250.994 37.6605C250.51 36.3933 250.545 35.5293 251.098 35.0685C251.651 34.5846 252.618 34.3427 254.001 34.3427C254.416 34.3427 254.934 34.2506 255.556 34.0662C256.201 33.8589 256.685 33.7552 257.008 33.7552C257.146 33.7552 257.514 33.7437 258.113 33.7206C258.712 33.6976 259.139 33.6976 259.392 33.7206C259.669 33.7437 260.014 33.8013 260.429 33.8934C260.867 33.9626 261.189 34.1123 261.397 34.3427C261.604 34.5731 261.742 34.8726 261.811 35.2413C261.811 35.2643 261.869 35.5062 261.984 35.967C262.122 36.4278 262.168 36.785 262.122 37.0384C262.03 37.407 261.869 37.649 261.639 37.7642C261.408 37.8794 261.097 37.96 260.705 38.0061C260.314 38.0291 259.991 38.1098 259.738 38.248C259.369 38.4554 259.081 38.8586 258.874 39.4576C258.689 40.0336 258.586 40.5405 258.563 40.9782C258.54 41.393 258.528 41.9805 258.528 42.7408C258.528 42.879 258.528 42.9827 258.528 43.0518C258.528 43.3053 258.517 43.7776 258.494 44.4688C258.494 45.16 258.494 45.6784 258.494 46.024C258.517 46.3696 258.54 46.8189 258.563 47.3718C258.586 47.9018 258.643 48.3741 258.736 48.7888C258.828 49.2035 258.954 49.5952 259.116 49.9638C261.443 47.8902 263.447 46.289 265.129 45.16C265.521 44.9066 265.843 44.5149 266.097 43.985C266.35 43.455 266.604 43.0749 266.857 42.8445C267.111 42.6141 267.537 42.591 268.136 42.7754C268.32 42.8214 268.919 43.121 269.933 43.6739C270.256 43.8582 270.509 44.0426 270.693 44.2269C270.901 44.3882 271.016 44.561 271.039 44.7453C271.085 44.9066 271.085 45.0563 271.039 45.1946C270.993 45.3328 270.889 45.4826 270.728 45.6438C270.567 45.7821 270.394 45.9088 270.209 46.024C270.048 46.1392 269.829 46.2659 269.553 46.4042C269.276 46.5194 269.034 46.623 268.827 46.7152C268.643 46.8074 268.412 46.911 268.136 47.0262C267.882 47.1184 267.687 47.199 267.548 47.2682C266.834 47.5907 266.373 48.04 266.166 48.616C265.982 49.169 266.016 49.8141 266.27 50.5514C266.523 51.2656 266.823 51.9568 267.168 52.625C267.537 53.2931 267.952 54.0189 268.412 54.8022C268.873 55.5856 269.184 56.1846 269.345 56.5994C270.106 58.6269 270.901 59.7213 271.73 59.8826C271.96 59.9286 272.248 59.8941 272.594 59.7789C272.94 59.6406 273.216 59.5254 273.424 59.4333C273.654 59.3181 273.884 59.3411 274.115 59.5024C274.368 59.6406 274.576 59.9747 274.737 60.5046C274.875 60.9424 274.864 61.2995 274.702 61.576C274.541 61.8294 274.334 61.9792 274.08 62.0253C273.85 62.0944 273.527 62.1405 273.112 62.1635C272.698 62.2096 272.444 62.2442 272.352 62.2672C272.191 62.2902 271.995 62.3824 271.765 62.5437C271.534 62.705 271.327 62.8086 271.143 62.8547H270.832L270.555 62.5782H270.244L269.622 63.1658V63.4768L269.345 63.7533C269 63.9146 268.401 63.9146 267.548 63.7533C267.203 63.7302 266.926 63.6726 266.719 63.5805C266.535 63.5114 266.419 63.3962 266.373 63.2349C266.35 63.0736 266.339 62.9354 266.339 62.8202C266.362 62.705 266.408 62.5206 266.477 62.2672C266.569 62.0138 266.627 61.8179 266.65 61.6797C266.765 61.1037 266.719 60.5277 266.512 59.9517C266.327 59.3526 266.028 58.696 265.613 57.9818C265.221 57.2675 264.956 56.703 264.818 56.2883C264.035 53.9843 263.24 52.1757 262.433 50.8624C260.475 51.8531 259.369 52.7632 259.116 53.5926C259.047 54.0765 259.024 54.4451 259.047 54.6986C259.07 54.929 259.127 55.2976 259.219 55.8045C259.335 56.3114 259.404 56.6685 259.427 56.8758C259.496 57.4749 259.772 57.9357 260.256 58.2582C260.763 58.5808 261.086 58.9264 261.224 59.295C261.431 59.8941 261.535 60.8848 261.535 62.2672C261.558 62.6589 261.443 62.9584 261.189 63.1658C260.959 63.3962 260.613 63.5344 260.152 63.5805C259.692 63.6266 259.254 63.6381 258.839 63.615C258.424 63.615 257.929 63.592 257.353 63.5459C256.777 63.4998 256.362 63.4768 256.109 63.4768C255.303 63.4768 253.505 63.6726 250.718 64.0643C250.096 64.1565 249.612 64.0989 249.266 63.8915C248.92 63.7072 248.713 63.3846 248.644 62.9238C248.575 62.4861 248.552 62.0483 248.575 61.6106C248.621 61.1728 248.679 60.6198 248.748 59.9517C248.84 59.2835 248.886 58.7651 248.886 58.3965C249.047 58.4195 249.393 58.5002 249.923 58.6384C250.453 58.7536 250.844 58.8227 251.098 58.8458C251.351 58.8688 251.662 58.8573 252.031 58.8112C252.4 58.7651 252.664 58.6038 252.826 58.3274C252.987 58.0509 253.079 57.6707 253.102 57.1869Z" fill="#FF6B8B"/>
<path d="M151.2 1.44043C192.452 1.44043 229.743 6.58706 256.672 14.873C270.146 19.0188 280.945 23.9253 288.344 29.3076C295.775 34.7129 299.52 40.3992 299.52 46.0801C299.52 51.7608 295.774 57.4464 288.344 62.8516C280.945 68.2339 270.146 73.1414 256.672 77.2871C229.743 85.5731 192.452 90.7197 151.2 90.7197C109.947 90.7197 72.6567 85.5731 45.7271 77.2871C32.2534 73.1414 21.4549 68.2339 14.0562 62.8516C6.62592 57.4463 2.8804 51.7609 2.88037 46.0801C2.88037 40.3992 6.62586 34.7129 14.0562 29.3076C21.4549 23.9254 32.2537 19.0187 45.7271 14.873C72.6567 6.58702 109.947 1.44045 151.2 1.44043Z" stroke="#4A6DE5" stroke-width="2.88"/>
</svg>
