<svg width="48" height="48" viewBox="0 0 48 48" fill="none" xmlns="http://www.w3.org/2000/svg">
<path fill-rule="evenodd" clip-rule="evenodd" d="M13.3333 10.6667C13.3333 7.83769 14.4571 5.12458 16.4575 3.12419C18.4579 1.12381 21.171 0 24 0C26.829 0 29.5421 1.12381 31.5425 3.12419C33.5429 5.12458 34.6667 7.83769 34.6667 10.6667C34.6667 13.4956 33.5429 16.2088 31.5425 18.2091C29.5421 20.2095 26.829 21.3333 24 21.3333C21.171 21.3333 18.4579 20.2095 16.4575 18.2091C14.4571 16.2088 13.3333 13.4956 13.3333 10.6667ZM13.3333 26.6667C9.79711 26.6667 6.40573 28.0714 3.90524 30.5719C1.40476 33.0724 0 36.4638 0 40C0 42.1217 0.842855 44.1566 2.34315 45.6569C3.84344 47.1571 5.87827 48 8 48H40C42.1217 48 44.1566 47.1571 45.6569 45.6569C47.1571 44.1566 48 42.1217 48 40C48 36.4638 46.5952 33.0724 44.0948 30.5719C41.5943 28.0714 38.2029 26.6667 34.6667 26.6667H13.3333Z" fill="#FF6B8B"/>
</svg>
