<svg width="48" height="48" viewBox="0 0 48 48" fill="none" xmlns="http://www.w3.org/2000/svg">
<path fill-rule="evenodd" clip-rule="evenodd" d="M5.68024 5.45403C3.87938 7.26102 2.45086 9.40623 1.47625 11.7672C0.501629 14.1281 2.68349e-08 16.6586 0 19.214C-2.68349e-08 21.7695 0.501629 24.2999 1.47625 26.6609C2.45086 29.0218 3.87938 31.167 5.68024 32.974C7.4811 34.781 9.61903 36.2144 11.972 37.1923C14.3249 38.1703 16.8468 38.6736 19.3936 38.6736C21.9404 38.6736 24.4622 38.1703 26.8152 37.1923C29.1681 36.2144 31.306 34.781 33.1069 32.974C36.6391 29.3044 38.5936 24.3895 38.5494 19.2879C38.5053 14.1864 36.4659 9.30631 32.8707 5.69883C29.2754 2.09134 24.4119 0.0450667 19.3277 0.000735526C14.2434 -0.0435957 9.34519 1.91756 5.688 5.46181M30.3689 30.2267C28.9342 31.6985 27.2229 32.8702 25.3339 33.6738C23.4449 34.4774 21.4157 34.8971 19.364 34.9084C17.3122 34.9197 15.2786 34.5225 13.3809 33.7399C11.4832 32.9572 9.75907 31.8045 8.30838 30.3486C6.85768 28.8927 5.70923 27.1625 4.92952 25.2582C4.14981 23.3539 3.75434 21.3133 3.766 19.2546C3.77766 17.1958 4.19623 15.1599 4.99746 13.2646C5.79869 11.3693 6.96667 9.65229 8.43377 8.21303C11.3541 5.34812 15.2826 3.75438 19.3667 3.77767C23.4508 3.80096 27.361 5.43941 30.2487 8.33745C33.1364 11.2355 34.7686 15.1593 34.7911 19.2573C34.8136 23.3553 33.2246 27.2969 30.3689 30.2267Z" fill="#FF6B8B"/>
<path d="M30.3608 35.8031C29.6336 35.0729 29.2252 34.0828 29.2256 33.0505C29.226 32.0182 29.635 31.0284 30.3627 30.2987C31.0904 29.569 32.0772 29.1593 33.106 29.1597C34.1347 29.16 35.1212 29.5705 35.8484 30.3006L46.816 41.3094C47.1864 41.6684 47.4818 42.0978 47.6851 42.5725C47.8883 43.0473 47.9953 43.5579 47.9998 44.0746C48.0043 44.5913 47.9061 45.1038 47.7111 45.582C47.5161 46.0602 47.2282 46.4947 46.864 46.8601C46.4999 47.2255 46.0669 47.5144 45.5903 47.7101C45.1137 47.9057 44.603 48.0042 44.088 47.9997C43.5731 47.9952 43.0642 47.8879 42.591 47.6839C42.1179 47.48 41.6899 47.1835 41.3322 46.8119L30.3608 35.8031Z" fill="#FF6B8B"/>
</svg>
